#N canvas 184 45 1255 738 10;
#N canvas 0 22 1218 741 arduino 1;
#X floatatom 456 423 5 0 0 3 a0 - -;
#X floatatom 494 423 5 0 0 3 a1 - -;
#X floatatom 532 423 5 0 0 3 a2 - -;
#X floatatom 571 423 5 0 0 3 a3 - -;
#X floatatom 609 423 5 0 0 3 a4 - -;
#X floatatom 647 424 5 0 0 3 a5 - -;
#X text 169 630 <- argument sets port #;
#X msg 3 618 info;
#X msg 3 638 version;
#X floatatom 685 425 5 0 0 3 a6 - -;
#X floatatom 724 426 5 0 0 3 a7 - -;
#X obj 450 154 route analog;
#X obj 456 363 route 0 1 2 3 4 5 6 7;
#N canvas 978 22 499 396 display 0;
#X obj 6 7 inlet;
#X obj 6 28 mapping/resample 100;
#X obj 6 50 outlet;
#X obj 54 50 inlet;
#X obj 54 71 mapping/resample 100;
#X obj 54 93 outlet;
#X obj 103 93 inlet;
#X obj 103 114 mapping/resample 100;
#X obj 103 136 outlet;
#X obj 151 136 inlet;
#X obj 151 157 mapping/resample 100;
#X obj 151 179 outlet;
#X obj 200 179 inlet;
#X obj 200 200 mapping/resample 100;
#X obj 200 222 outlet;
#X obj 247 222 inlet;
#X obj 247 243 mapping/resample 100;
#X obj 247 265 outlet;
#X obj 295 265 inlet;
#X obj 295 286 mapping/resample 100;
#X obj 295 308 outlet;
#X obj 345 308 inlet;
#X obj 345 329 mapping/resample 100;
#X obj 345 351 outlet;
#X obj 60 290 receive ARDUINO_TEST_RESET;
#X connect 0 0 1 0;
#X connect 1 0 2 0;
#X connect 3 0 4 0;
#X connect 4 0 5 0;
#X connect 6 0 7 0;
#X connect 7 0 8 0;
#X connect 9 0 10 0;
#X connect 10 0 11 0;
#X connect 12 0 13 0;
#X connect 13 0 14 0;
#X connect 15 0 16 0;
#X connect 16 0 17 0;
#X connect 18 0 19 0;
#X connect 19 0 20 0;
#X connect 21 0 22 0;
#X connect 22 0 23 0;
#X connect 24 0 22 0;
#X connect 24 0 19 0;
#X connect 24 0 16 0;
#X connect 24 0 13 0;
#X connect 24 0 10 0;
#X connect 24 0 7 0;
#X connect 24 0 4 0;
#X connect 24 0 1 0;
#X restore 455 391 pd display values without pegging the CPU;
#X text 25 88 (C) Copyright 2006 Free Software Foundation;
#N canvas 0 22 451 224 ver 0;
#X obj 23 7 inlet;
#X obj 250 100 cnv 15 145 17 empty \$0-version_cnv empty 4 10 0 12
-203904 -1 0;
#X obj 23 157 send \$0-version_cnv;
#X msg 23 132 label \$1;
#X obj 48 103 symbol;
#X obj 38 77 loadbang;
#X msg 96 78 bang;
#X obj 309 163 outlet;
#X obj 23 52 zexy/makesymbol Firmata-%s.%s;
#X obj 23 29 route version bang;
#X connect 0 0 9 0;
#X connect 3 0 2 0;
#X connect 4 0 3 0;
#X connect 5 0 4 0;
#X connect 6 0 4 0;
#X connect 8 0 3 0;
#X connect 9 0 8 0;
#X connect 9 1 7 0;
#X connect 9 1 6 0;
#X connect 9 2 7 0;
#X coords 0 -1 1 1 145 17 1 250 100;
#X restore 154 677 pd ver;
#X obj 103 631 arduino 1;
#N canvas 649 518 411 212 firmware 0;
#X obj 123 2 inlet;
#X obj 250 100 cnv 15 145 17 empty \$0-firmware_cnv empty 4 10 0 12
-232576 -66577 0;
#X msg 123 156 label \$1;
#X obj 148 127 symbol;
#X obj 138 101 loadbang;
#X msg 196 102 bang;
#X obj 123 181 send \$0-firmware_cnv;
#X obj 123 24 route firmware;
#X obj 18 181 print Firmware;
#X obj 123 49 list;
#X obj 123 80 zexy/makesymbol %s-%s.%s;
#X obj 18 151 list trim;
#X obj 204 45 route bang;
#X connect 0 0 7 0;
#X connect 2 0 6 0;
#X connect 3 0 2 0;
#X connect 4 0 3 0;
#X connect 5 0 3 0;
#X connect 7 0 9 0;
#X connect 7 1 12 0;
#X connect 9 0 10 0;
#X connect 10 0 2 0;
#X connect 10 0 11 0;
#X connect 11 0 8 0;
#X connect 12 0 5 0;
#X coords 0 -1 1 1 145 17 1 250 100;
#X restore 154 697 pd firmware;
#X msg 3 678 devices;
#X msg 3 658 firmware;
#X text 31 102 released under the GNU GPL v2 or later;
#X text 27 39 The [arduino] object works with the Firmata firmware
for Arduino (also known as Pduino firmware).;
#N canvas 623 75 404 287 device 0;
#X obj 35 60 inlet;
#X obj 35 118 route open port ports;
#X obj 35 169 tgl 15 0 empty empty open -3 20 0 10 -262144 -1 -1 0
1;
#X floatatom 76 170 5 0 0 3 port - -;
#X obj 117 170 print comport_ports;
#X obj 252 170 outlet;
#X obj 235 74 receive ARDUINO_TEST_RESET;
#X obj 235 97 bang;
#X connect 0 0 1 0;
#X connect 1 0 2 0;
#X connect 1 1 3 0;
#X connect 1 2 4 0;
#X connect 1 3 5 0;
#X connect 6 0 7 0;
#X connect 7 0 5 0;
#X restore 154 655 pd device info;
#X text 246 655 <- open to see info;
#N canvas 0 22 450 300 (subpatch) 0;
#X coords 0 1 100 -1 300 125 1;
#X restore 442 357 graph;
#X text 441 338 analog input readings;
#X msg 905 43 open 4;
#X msg 906 81 pinMode 2 1;
#X obj 929 546 tgl 15 0 empty empty empty 17 7 0 10 -262144 -1 -1 0
1;
#X msg 934 592 digital 2 \$1;
#X obj 838 22 loadbang;
#X obj 918 512 inlet;
#X obj 464 578 outlet;
#X obj 532 579 outlet;
#X obj 597 578 outlet;
#X obj 661 580 outlet;
#X msg 880 199 analogIns 0 1;
#X msg 890 219 analogIns 1 1;
#X msg 900 239 analogIns 2 1;
#X msg 910 259 analogIns 3 1;
#X obj 755 259 s ardunio;
#X obj 77 525 r arduino;
#X connect 0 0 32 0;
#X connect 1 0 33 0;
#X connect 2 0 34 0;
#X connect 3 0 35 0;
#X connect 7 0 16 0;
#X connect 8 0 16 0;
#X connect 11 0 12 0;
#X connect 12 0 13 0;
#X connect 12 1 13 1;
#X connect 12 2 13 2;
#X connect 12 3 13 3;
#X connect 12 4 13 4;
#X connect 12 5 13 5;
#X connect 12 6 13 6;
#X connect 12 7 13 7;
#X connect 13 0 0 0;
#X connect 13 1 1 0;
#X connect 13 2 2 0;
#X connect 13 3 3 0;
#X connect 13 4 4 0;
#X connect 13 5 5 0;
#X connect 13 6 9 0;
#X connect 13 7 10 0;
#X connect 15 0 17 0;
#X connect 16 0 11 0;
#X connect 16 1 22 0;
#X connect 18 0 16 0;
#X connect 19 0 16 0;
#X connect 22 0 15 0;
#X connect 26 0 16 0;
#X connect 27 0 16 0;
#X connect 28 0 29 0;
#X connect 29 0 16 0;
#X connect 30 0 26 0;
#X connect 30 0 27 0;
#X connect 30 0 36 0;
#X connect 30 0 37 0;
#X connect 30 0 38 0;
#X connect 30 0 39 0;
#X connect 30 0 0 0;
#X connect 30 0 1 0;
#X connect 30 0 2 0;
#X connect 30 0 3 0;
#X connect 31 0 28 0;
#X connect 36 0 40 0;
#X connect 37 0 40 0;
#X connect 38 0 40 0;
#X connect 39 0 40 0;
#X connect 41 0 16 0;
#X restore 94 95 pd arduino;
#X obj 94 50 tgl 15 0 empty empty buzz 20 7 0 10 -262144 -1 -1 0 1
;
#X obj 56 226 hsl 128 15 0 1 0 0 empty empty piezo_signal -2 -8 0 10
-262144 -1 -1 0 1;
#X obj 575 51 loadbang;
#X msg 548 170 connect 224.0.0.1 7000;
#X text 556 191 broadcast to multicast IP address;
#X obj 510 632 mrpeach/udpsend;
#X obj 316 572 mrpeach/packOSC;
#X msg 185 442 send /piezo \$1;
#X obj 567 94 bng 15 250 50 0 empty empty empty 17 7 0 10 -262144 -1
-1;
#X obj 120 366 f;
#X msg 657 113 \; pd dsp 1;
#X obj 222 144 jerk;
#X obj 265 44 hsl 128 15 0 1 0 0 empty empty x-accel -2 -8 0 10 -262144
-1 -1 0 1;
#X obj 264 75 hsl 128 15 0 1 0 0 empty empty y-accel -2 -8 0 10 -262144
-1 -1 0 1;
#X obj 264 106 hsl 128 15 0 1 0 0 empty empty z-accel -2 -8 0 10 -262144
-1 -1 0 1;
#X obj 305 300 f;
#X obj 301 358 pack f f f;
#X msg 295 424 send /accel \$1 \$2 \$3;
#X obj 288 641 print;
#X msg 171 482 /send jerk;
#X obj 220 179 bng 15 250 50 0 empty empty empty 17 7 0 10 -262144
-1 -1;
#X text 299 187 send OSC signals every 10 ms;
#X text 285 669 print all OSC messages;
#X obj 372 510 s osc;
#X obj 285 531 r osc;
#X text 654 144 turn DSP on;
#X obj 454 114 metro 100;
#X connect 0 0 2 0;
#X connect 0 1 13 0;
#X connect 0 2 14 0;
#X connect 0 3 15 0;
#X connect 1 0 0 0;
#X connect 2 0 10 1;
#X connect 3 0 9 0;
#X connect 4 0 6 0;
#X connect 7 0 6 0;
#X connect 8 0 24 0;
#X connect 9 0 4 0;
#X connect 9 0 11 0;
#X connect 9 0 27 0;
#X connect 10 0 8 0;
#X connect 12 0 21 0;
#X connect 13 0 12 0;
#X connect 13 0 16 1;
#X connect 14 0 12 1;
#X connect 14 0 17 1;
#X connect 15 0 12 1;
#X connect 15 0 17 2;
#X connect 16 0 17 0;
#X connect 17 0 18 0;
#X connect 18 0 24 0;
#X connect 20 0 24 0;
#X connect 21 0 20 0;
#X connect 25 0 19 0;
#X connect 25 0 7 0;
#X connect 27 0 10 0;
#X connect 27 0 16 0;
